<?xml version="1.0" encoding="iso-8859-1"?>
<!-- Generator: Adobe Illustrator 16.0.0, SVG Export Plug-In . SVG Version: 6.00 Build 0)  -->
<!DOCTYPE svg PUBLIC "-//W3C//DTD SVG 1.1//EN" "http://www.w3.org/Graphics/SVG/1.1/DTD/svg11.dtd">
<svg xmlns="http://www.w3.org/2000/svg" xmlns:xlink="http://www.w3.org/1999/xlink" version="1.1" id="Capa_1" x="0px" y="0px" width="512px" height="512px" viewBox="0 0 92.204 92.204" style="enable-background:new 0 0 92.204 92.204;" xml:space="preserve">
<g>
	<path d="M46.102,0C20.641,0,0,20.641,0,46.102c0,25.461,20.641,46.103,46.102,46.103c25.46,0,46.102-20.642,46.102-46.103   C92.204,20.641,71.562,0,46.102,0z M71.854,46.102v25.83h-5.15h-5.15l-0.015-17.949l-0.011-17.943l-4.879,17.046   c-2.685,9.375-5,17.449-5.145,17.944l-0.262,0.904h-5.14h-5.141l-0.262-0.904c-0.144-0.495-2.46-8.569-5.146-17.944l-4.878-17.046   l-0.013,17.943l-0.01,17.949h-5.15h-5.15v-25.83v-25.83h7.728l7.723,0.005l5.146,17.179c2.831,9.45,5.159,17.171,5.17,17.153   c0.011-0.016,2.327-7.75,5.15-17.183l5.136-17.149l7.723-0.005h7.728v25.83H71.854z" fill="#006DF0"/>
</g>
<g>
</g>
<g>
</g>
<g>
</g>
<g>
</g>
<g>
</g>
<g>
</g>
<g>
</g>
<g>
</g>
<g>
</g>
<g>
</g>
<g>
</g>
<g>
</g>
<g>
</g>
<g>
</g>
<g>
</g>
</svg>
