<?xml version="1.0" encoding="iso-8859-1"?>
<!-- Generator: Adobe Illustrator 18.0.0, SVG Export Plug-In . SVG Version: 6.00 Build 0)  -->
<!DOCTYPE svg PUBLIC "-//W3C//DTD SVG 1.1//EN" "http://www.w3.org/Graphics/SVG/1.1/DTD/svg11.dtd">
<svg xmlns="http://www.w3.org/2000/svg" xmlns:xlink="http://www.w3.org/1999/xlink" version="1.1" id="Capa_1" x="0px" y="0px" viewBox="0 0 395 395" style="enable-background:new 0 0 395 395;" xml:space="preserve" width="512px" height="512px">
<g>
	<path d="M313.002,0H82C36.785,0,0,36.784,0,81.998v230.993C0,358.211,36.785,395,82,395h231.002   C358.216,395,395,358.211,395,312.991V81.998C395,36.784,358.216,0,313.002,0z M380,312.991C380,349.94,349.944,380,313.002,380H82   c-36.944,0-67-30.06-67-67.009V81.998C15,45.056,45.056,15,82,15h231.002C349.944,15,380,45.056,380,81.998V312.991z" fill="#006DF0"/>
	<path d="M279.123,130.472c-3.699-21.702-22.361-37.459-44.377-37.459h-29.318V64.309h32.184v7.779c0,3.76,3.049,6.809,6.809,6.809   c3.76,0,6.809-3.049,6.809-6.809V57.5c0-3.76-3.049-6.809-6.809-6.809h-93.84c-3.76,0-6.809,3.049-6.809,6.809v14.588   c0,3.76,3.049,6.809,6.809,6.809c3.76,0,6.809-3.049,6.809-6.809v-7.779h32.184v28.704h-29.318   c-22.016,0-40.68,15.757-44.379,37.456l-9.15,53.722c-0.426,2.484-0.643,5.033-0.643,7.567v59.186   c0,24.826,20.193,45.014,45.018,45.014h12.174L132.51,337.5h14.588l3.273-4.419h94.257l3.273,4.419h14.588l-30.762-41.543H243.9   c24.822,0,45.018-20.188,45.018-45.014v-59.186c0-2.53-0.217-5.079-0.641-7.561L279.123,130.472z M141.605,263.213   c-3.504,0-6.34-2.836-6.34-6.341v-13.954c0-3.505,2.836-6.341,6.34-6.341h24.414c3.504,0,6.344,2.836,6.344,6.341v13.954   c0,3.505-2.84,6.341-6.344,6.341H141.605z M236.612,322.259h-78.226l7.934-10.713h62.358L236.612,322.259z M217.133,295.957   l3.531,4.767h-46.328l3.531-4.767H217.133z M185.15,253.066v-6.342h24.699v6.342H185.15z M259.734,256.872   c0,3.505-2.838,6.341-6.342,6.341h-24.414c-3.504,0-6.344-2.836-6.344-6.341v-13.954c0-3.505,2.84-6.341,6.344-6.341h24.414   c3.504,0,6.342,2.836,6.342,6.341V256.872z M254.748,190.404c-0.006,0-0.01,0-0.01,0H140.262c-2.447,0-4.777-1.078-6.357-2.953   c-1.586-1.873-2.256-4.348-1.846-6.767l7.695-45.15c2.094-12.304,12.676-21.228,25.156-21.228h65.18   c12.48,0,23.063,8.927,25.156,21.232l7.619,44.693c0.135,0.599,0.207,1.216,0.207,1.854   C263.072,186.684,259.344,190.404,254.748,190.404z" fill="#006DF0"/>
</g>
<g>
</g>
<g>
</g>
<g>
</g>
<g>
</g>
<g>
</g>
<g>
</g>
<g>
</g>
<g>
</g>
<g>
</g>
<g>
</g>
<g>
</g>
<g>
</g>
<g>
</g>
<g>
</g>
<g>
</g>
</svg>
